<svg width="487" height="300" viewBox="0 0 487 300" fill="none" xmlns="http://www.w3.org/2000/svg">
<path d="M431.268 263.471L401.832 250.957L454.849 243.413L431.268 263.471ZM480.072 231.407C477.698 230.406 475.21 229.93 472.607 229.993C470.022 230.057 466.379 230.39 461.711 231.01L390.659 240.3C388.708 240.554 387.065 240.761 385.716 240.935C384.382 241.126 383.032 241.317 381.715 241.555C380.381 241.793 379.259 242.079 378.332 242.412C377.405 242.73 376.673 243.143 376.12 243.619C373.974 245.446 373.453 247.399 374.592 249.48C375.307 250.798 376.771 252.116 378.966 253.418C380.219 254.165 381.731 254.911 383.504 255.673L420.443 270.809L412.328 277.733C410.132 279.591 409.352 281.37 409.97 283.053C410.588 284.737 413.297 287.182 416.094 288.373C416.127 288.389 416.143 288.389 416.159 288.405C419.022 289.628 421.884 290.136 424.681 289.945C427.478 289.739 430.015 288.691 432.26 286.785L440.391 279.877L445.01 281.846C448.831 283.466 452.084 284.355 454.784 284.53C457.467 284.673 459.662 284.053 461.337 282.608C461.435 282.529 461.533 282.449 461.614 282.354C463.419 280.687 464.518 278.13 462.86 276.685C461.136 275.16 458.322 273.588 454.435 271.936L451.199 270.555L483.975 242.778C484.935 241.968 485.65 241.158 486.171 240.395C488.317 237.044 486.301 234.059 480.072 231.407Z" fill="#B0BBCC"/>
<path d="M238.855 133.296L112.131 206.709C110.617 207.582 110.617 209.78 112.131 210.653L115.739 212.754L237.63 283.354C239.096 284.195 240.884 284.195 242.35 283.354L364.241 212.754L367.85 210.653C369.364 209.78 369.364 207.582 367.85 206.709L241.126 133.296C240.433 132.892 239.563 132.892 238.855 133.296ZM302.659 194.409C301.661 195.217 300.437 196.057 298.955 196.914L247.022 227.01L246.651 227.22L249.148 228.674C252.16 230.42 254.093 232.085 254.963 233.685C255.801 235.22 254.77 236.853 251.902 238.599C251.757 238.679 251.629 238.776 251.467 238.857C248.858 240.36 246.216 241.039 243.542 240.878C240.868 240.7 238.049 239.746 235.085 238.049L232.653 236.643C231.944 236.239 231.091 236.239 230.382 236.643L218.945 243.254C215.482 245.274 212.228 246.373 209.216 246.583C206.203 246.793 203.578 246.244 201.355 244.967C201.339 244.951 201.323 244.951 201.306 244.935C199.148 243.69 198.278 242.154 198.665 240.393C199.051 238.615 200.936 236.74 204.319 234.784L216.883 227.495L216.69 227.381L216.464 227.252L216.207 227.107L187.518 210.459C186.149 209.667 185.053 208.875 184.216 208.083C182.734 206.709 182.025 205.319 182.073 203.945C182.154 201.747 183.877 199.694 187.196 197.771C188.049 197.286 189.048 196.833 190.208 196.51C191.368 196.154 192.688 195.863 194.219 195.621C195.717 195.378 197.231 195.168 198.713 194.974C200.195 194.797 202.015 194.57 204.19 194.312L283.104 184.533C288.291 183.886 292.237 183.531 294.96 183.466C297.698 183.402 299.969 183.903 301.806 184.953C306.622 187.749 306.896 190.885 302.659 194.409Z" fill="#B0BBCC"/>
<path d="M268.749 197.927L232.482 218.903L209.841 205.827L268.749 197.927Z" fill="#B0BBCC"/>
<path d="M95.7074 265.548C97.4367 267.055 98.7817 268.545 99.7584 269.955C100.799 271.493 101.392 272.967 101.584 274.394L101.632 274.954C101.792 277.855 99.6944 280.579 95.3871 283.094C91.224 285.53 86.6766 286.748 81.7609 286.732C76.8452 286.732 71.4652 285.642 65.5888 283.447C59.7284 281.236 52.9873 277.951 45.4297 273.576C34.2533 267.119 27.208 261.638 24.2458 257.136C23.3651 255.806 22.9008 254.524 22.8367 253.29V253.226C22.7567 251.768 23.221 250.358 24.2298 249.012C25.2706 247.602 26.8878 246.239 29.0974 244.958C33.4207 242.426 37.9841 241.16 42.8197 241.112C47.6553 241.064 52.9233 242.105 58.6716 244.204C64.3879 246.336 70.9368 249.508 78.3183 253.771C86.0842 258.273 91.8805 262.199 95.7074 265.548ZM72.8582 232.715C63.8115 229.366 55.0369 227.796 46.0221 227.86C38.0481 227.924 26.0551 229.446 14.2223 236.369C6.55252 240.855 1.90904 245.999 0.483971 251.351C0.467959 251.367 0.467959 251.367 0.467959 251.367C-0.588833 255.373 0.131707 259.459 2.75768 263.465C6.69663 269.474 15.0069 276.092 28.1367 283.687C36.6871 288.623 44.2448 292.308 51.258 294.92C60.3689 298.333 69.1435 300 78.1582 300C89.6388 300.032 101.023 297.067 110.23 291.683C119.693 286.139 124.737 279.345 124.401 272.519C124.321 270.884 123.953 269.266 123.328 267.679C121.967 264.138 119.309 260.645 115.242 257.104C110.727 253.098 104.274 248.723 95.5472 243.692C87.189 238.852 79.7594 235.247 72.8582 232.715Z" fill="#B0BBCC"/>
<path d="M240.408 138.767L120.318 69.3836L240.408 0L360.498 69.3836L240.408 138.767Z" fill="#B99BF9"/>
<path d="M360.498 208.231L240.408 277.63L120.318 208.231L240.408 138.847L360.498 208.231Z" fill="#05346D"/>
<path d="M240.408 138.847L120.318 208.231V69.4637L240.408 138.847Z" fill="#093F8E"/>
<path d="M360.498 69.4637V208.231L240.408 138.847L360.498 69.4637Z" fill="#093F8E"/>
<path d="M251.296 96.7369C250.576 96.1921 249.743 95.6472 248.782 95.1024L246.492 93.7723V86.3528L248.782 87.6829C251.536 89.2694 253.314 90.7917 254.098 92.25C254.867 93.6441 253.922 95.1344 251.296 96.7369Z" fill="#2B5FCE"/>
<path d="M219.257 86.6093V94.0287L207.76 100.679C206.671 101.304 205.759 101.929 205.006 102.522C203.036 101.384 202.236 99.9899 202.588 98.3714C202.94 96.7529 204.67 95.0383 207.76 93.2595L219.257 86.6093Z" fill="#2B5FCE"/>
<path d="M266.491 59.3213V66.7404L233.106 86.0332L212.275 73.9992V66.5801L233.106 78.6141L266.491 59.3213Z" fill="#2B5FCE"/>
<path d="M297.731 56.4042C297.715 55.9395 297.459 55.5389 296.946 55.2024C295.297 54.1769 293.183 53.7763 290.686 53.8404C288.204 53.9045 284.585 54.2249 279.845 54.8178L207.647 63.7432C205.662 63.9835 203.997 64.1918 202.636 64.3521C201.275 64.5283 199.898 64.7206 198.52 64.945C197.127 65.1693 195.911 65.4417 194.854 65.7622C193.797 66.0666 192.884 66.4672 192.1 66.9159C190.514 67.8293 189.746 68.358 189.362 68.9189C188.001 67.669 187.36 66.4031 187.408 65.1372C187.488 63.1343 189.057 61.2595 192.1 59.4968C192.884 59.0482 193.797 58.6476 194.854 58.3431C195.911 58.0226 197.127 57.7502 198.52 57.5259C199.898 57.3015 201.275 57.1093 202.636 56.933C203.997 56.7728 205.662 56.5644 207.647 56.3241L279.845 47.3988C284.585 46.8059 288.204 46.4854 290.686 46.4213C293.183 46.3572 295.265 46.8219 296.946 47.7833C301.35 50.3311 301.606 53.1994 297.731 56.4042Z" fill="#2B5FCE"/>
<path d="M240.408 0.0480957L120.318 69.4317L126.739 73.1492L240.408 138.815L354.077 73.1492L360.498 69.4317L240.408 0.0480957ZM297.731 56.4042C296.818 57.1413 295.697 57.9105 294.336 58.6956L246.829 86.1606L246.492 86.3529L248.782 87.6829C251.536 89.2693 253.314 90.7915 254.098 92.2497C254.867 93.6438 253.922 95.134 251.296 96.7364C251.168 96.8165 251.04 96.8966 250.896 96.9768C248.51 98.3548 246.092 98.9637 243.642 98.8195C241.192 98.6593 238.615 97.794 235.909 96.2397L232.642 94.3488L221.145 100.983C217.975 102.825 214.997 103.835 212.243 104.027C209.489 104.22 207.087 103.723 205.053 102.553C205.037 102.537 205.021 102.537 205.005 102.521C203.036 101.383 202.235 99.9893 202.588 98.3708C202.94 96.7524 204.669 95.0379 207.759 93.2592L219.256 86.6093L219.08 86.5132L218.872 86.401L218.632 86.2728L192.388 71.0821C191.139 70.361 190.13 69.64 189.362 68.9189C188.001 67.669 187.36 66.4031 187.408 65.1372C187.488 63.1343 189.057 61.2595 192.1 59.4968C192.884 59.0482 193.797 58.6476 194.854 58.3431C195.911 58.0226 197.127 57.7502 198.521 57.5259C199.898 57.3016 201.275 57.1093 202.636 56.933C203.997 56.7728 205.662 56.5645 207.647 56.3241L279.845 47.3988C284.585 46.8059 288.204 46.4854 290.686 46.4213C293.183 46.3572 295.265 46.8219 296.946 47.7833C301.35 50.3311 301.606 53.1994 297.731 56.4042Z" fill="#356ED3"/>
<path d="M266.491 59.3206L233.106 78.6134L212.275 66.5794L266.491 59.3206Z" fill="#356ED3"/>
<path d="M302.919 146.298L308.588 151.106L282.568 202.302L276.9 197.495L302.919 146.298Z" fill="#0C4993"/>
<path d="M339.57 176.936C339.57 179.532 338.722 181.904 337.024 184.067C335.327 186.23 332.781 188.281 329.403 190.236L325.32 192.607V205.058C325.32 208.487 324.551 211.484 323.046 214.031C321.525 216.579 319.491 218.598 316.961 220.056C314.463 221.499 312.446 221.803 310.893 220.986C309.692 220.329 308.971 218.935 308.699 216.756C309.307 216.499 310.06 215.954 311.293 215.249C313.823 213.791 315.856 211.772 317.378 209.224C318.883 206.676 319.651 203.68 319.651 200.251V187.8L323.734 185.429C327.113 183.474 329.659 181.423 331.356 179.26C332.813 177.401 333.646 175.398 333.854 173.235C334.815 172.882 335.679 172.674 336.448 172.578C338.529 172.305 339.57 173.763 339.57 176.936Z" fill="#0C4993"/>
<path d="M308.587 202.27L275.01 221.675C270.767 224.111 267.596 224.992 265.483 224.303C263.657 223.694 262.617 222.14 262.36 219.64C264.218 219.399 266.539 218.47 269.342 216.868L302.919 197.463L308.587 202.27Z" fill="#0C4993"/>
<path d="M325.32 125.788V177.609L319.651 172.802V120.981C319.651 119.955 319.587 119.026 319.459 118.208C323.366 117.359 325.32 119.891 325.32 125.788Z" fill="#0C4993"/>
<path d="M354.83 72.7806L240.408 138.895V277.678L360.498 208.279V69.5117L354.83 72.7806ZM325.32 125.788V177.609L328.186 175.943C330.347 174.693 332.237 173.795 333.854 173.235C334.815 172.882 335.679 172.674 336.448 172.578C338.529 172.305 339.57 173.763 339.57 176.936C339.57 179.532 338.722 181.903 337.024 184.067C335.327 186.23 332.781 188.281 329.403 190.236L325.32 192.607V205.058C325.32 208.487 324.551 211.484 323.046 214.031C321.525 216.579 319.491 218.598 316.961 220.056C314.463 221.499 312.446 221.803 310.893 220.986C309.692 220.329 308.971 218.935 308.699 216.755C308.619 216.147 308.587 215.458 308.587 214.72V202.27L275.01 221.675C270.767 224.11 267.596 224.992 265.483 224.303C263.657 223.694 262.617 222.14 262.36 219.64C262.312 219.223 262.296 218.774 262.296 218.294C262.296 217.445 262.456 216.499 262.761 215.458C263.081 214.4 263.545 213.214 264.17 211.9C264.794 210.57 265.435 209.272 266.107 207.99C266.78 206.708 267.612 205.154 268.589 203.279L304.04 135.338C306.361 130.867 308.267 127.502 309.756 125.227C311.261 122.968 313.054 121.221 315.152 120.019C316.785 119.074 318.21 118.465 319.459 118.208C323.366 117.359 325.32 119.891 325.32 125.788Z" fill="#1A52B5"/>
<path d="M308.587 151.106V187.272L282.567 202.302L308.587 151.106Z" fill="#1A52B5"/>
<path d="M127.363 73.5818L120.318 69.5117V208.279L240.408 277.678V138.895L127.363 73.5818ZM149.444 123.256C151.477 119.17 154.488 116.606 158.266 115.564C158.266 115.564 158.266 115.564 158.282 115.564C163.326 114.186 169.747 115.58 177.048 119.795C188.321 126.3 195.238 135.53 199.065 142.116C203.388 149.567 206.254 157.611 207.791 166.729C208.976 173.667 209.553 181.567 209.553 190.845C209.553 200.507 209.024 207.958 207.888 213.631C206.911 218.694 205.31 222.588 203.052 225.408C202.043 226.69 200.89 227.764 199.593 228.613C194.165 232.154 186.207 231.225 177.193 226.017C168.434 220.954 160.62 212.926 155.208 203.376C150.949 195.892 148.163 187.8 146.642 178.603C145.457 171.536 144.896 163.492 144.896 154.022C144.896 139.472 146.385 129.409 149.444 123.256Z" fill="#2B5FCE"/>
<path d="M193.108 181.343C193.108 189.947 192.644 196.645 191.715 201.421C191.299 203.584 190.723 205.411 190.018 206.901C189.25 208.503 188.321 209.705 187.248 210.538L186.816 210.843C184.51 212.365 181.292 211.932 177.192 209.561C173.221 207.269 170.083 204.081 167.761 199.994C165.44 195.908 163.79 190.925 162.798 184.996C161.837 179.067 161.341 171.905 161.341 163.524C161.341 151.154 162.493 142.677 164.783 138.062C165.456 136.7 166.288 135.691 167.265 135.05L167.313 135.018C168.466 134.248 169.843 133.96 171.428 134.152C173.077 134.345 174.951 135.034 177.048 136.251C181.163 138.623 184.366 141.812 186.688 145.802C189.009 149.792 190.659 154.663 191.651 160.447C192.612 166.216 193.108 173.17 193.108 181.343Z" fill="#2B5FCE"/>
<path d="M120.302 269.282V251.72C120.206 250.165 119.854 248.627 119.261 247.121C117.948 243.756 115.37 240.423 111.479 237.042C107.14 233.212 100.959 229.03 92.6011 224.207C84.5631 219.56 77.4377 216.115 70.8408 213.663C62.1943 210.442 53.788 208.904 45.1896 208.92C37.5678 208.952 26.1193 210.33 14.8628 216.852C7.56135 221.066 3.14204 225.937 1.81304 231.001C1.81304 231.017 1.81304 231.017 1.81304 231.017C1.50881 232.171 1.36471 233.324 1.38072 234.478V251.896C1.38072 254.62 2.26138 257.36 4.05472 260.068C7.84957 265.789 15.8075 272.118 28.409 279.393C36.5911 284.12 43.8446 287.661 50.5536 290.161C59.2641 293.446 67.6544 295.08 76.2689 295.128C87.2371 295.209 98.0932 292.452 106.852 287.405C115.867 282.197 120.654 275.756 120.302 269.282ZM79.6154 264.987C74.9239 264.971 69.784 263.898 64.1638 261.799C58.5436 259.668 52.1067 256.511 44.8533 252.329C38.4325 248.627 33.4367 245.262 29.8501 242.234C33.741 240.118 37.84 239.077 42.1793 239.061C46.7908 239.045 51.8345 240.054 57.3427 242.089C62.8188 244.14 69.0795 247.185 76.1568 251.271C83.122 255.293 88.422 258.818 92.0887 261.895C88.2619 263.994 84.0987 265.02 79.6154 264.987Z" fill="#2B5FCE"/>
<path d="M203.052 225.408C202.043 226.69 200.89 227.764 199.593 228.613C194.165 232.154 186.207 231.225 177.192 226.017C168.434 220.954 160.62 212.926 155.208 203.375C150.949 195.892 148.163 187.8 146.642 178.603C145.457 171.536 144.896 163.492 144.896 154.022C144.896 139.472 146.385 129.409 149.444 123.256C151.477 119.17 154.487 116.606 158.266 115.564C157.61 116.43 157.017 117.391 156.489 118.449C153.431 124.602 151.942 134.665 151.942 149.215C151.942 158.685 152.502 166.729 153.687 173.795C155.208 182.993 157.994 191.085 162.253 198.568C167.665 208.119 175.479 216.147 184.238 221.21C191.427 225.36 197.944 226.802 203.052 225.408Z" fill="#1A52B5"/>
<path d="M200.155 176.536C200.155 185.141 199.69 191.839 198.762 196.614C197.817 201.389 196.184 204.53 193.862 206.036L187.249 210.539C188.322 209.706 189.25 208.504 190.019 206.901C190.724 205.411 191.3 203.585 191.716 201.421C192.645 196.646 193.109 189.948 193.109 181.343C193.109 173.171 192.613 166.217 191.652 160.448C190.659 154.664 189.01 149.792 186.688 145.802C184.367 141.812 181.164 138.624 177.049 136.252C174.952 135.034 173.078 134.345 171.429 134.153C169.844 133.961 168.467 134.249 167.314 135.018L174.231 130.291L174.263 130.259L174.391 130.179C176.745 128.641 179.979 129.073 184.095 131.445C188.21 133.816 191.412 137.005 193.734 140.995C196.056 144.985 197.705 149.856 198.698 155.641C199.658 161.41 200.155 168.364 200.155 176.536Z" fill="#1A52B5"/>
<path d="M167.313 135.018L167.265 135.05" stroke="black" stroke-width="0.25" stroke-miterlimit="10"/>
<path d="M221.722 60.9872L233.106 67.5734L250.688 57.4137L221.722 60.9872Z" fill="#0C4993"/>
<path d="M296.946 36.7429C295.265 35.7814 293.183 35.3167 290.686 35.3808C288.204 35.4449 284.585 35.7654 279.845 36.3583L207.647 45.2836C205.662 45.524 203.997 45.7323 202.636 45.8925C201.275 46.0688 199.898 46.2611 198.52 46.4854C197.127 46.7097 195.911 46.9821 194.854 47.3026C193.797 47.6071 192.884 48.0077 192.1 48.4563C189.057 50.219 187.488 52.0938 187.408 54.0968V71.5468C187.36 72.8127 188.001 74.0786 189.362 75.3284C190.13 76.0495 191.139 76.7706 192.388 77.4917L204.493 84.4941C203.42 85.4716 202.78 86.417 202.588 87.3304V104.78C202.235 106.399 203.036 107.793 205.005 108.931C205.021 108.947 205.037 108.947 205.053 108.963C207.087 110.132 209.489 110.629 212.243 110.437C214.997 110.245 217.975 109.235 221.145 107.392L232.642 100.758L235.909 102.649C238.615 104.204 241.192 105.069 243.642 105.229C246.092 105.373 248.51 104.764 250.896 103.386C251.04 103.306 251.168 103.226 251.296 103.146C253.33 101.896 254.354 100.726 254.354 99.6207V88.2117L294.336 65.1052C295.697 64.32 296.818 63.5509 297.731 62.8138C299.54 61.3075 300.453 59.8814 300.453 58.5354V41.0853C300.453 39.5471 299.284 38.0889 296.946 36.7429ZM233.106 67.5729L221.722 60.987L250.688 57.4137L233.106 67.5729Z" fill="#0C4993"/>
<path d="M202.588 88.7085V87.3303C202.476 87.8111 202.476 88.2758 202.588 88.7085Z" fill="#0C4993"/>
<path d="M233.106 67.5729L212.275 55.5389L266.491 48.2801L233.106 67.5729ZM296.946 36.7429C295.265 35.7814 293.183 35.3167 290.686 35.3808C288.204 35.4449 284.585 35.7654 279.845 36.3583L207.647 45.2836C205.662 45.524 203.997 45.7323 202.636 45.8925C201.275 46.0688 199.898 46.2611 198.52 46.4854C197.127 46.7097 195.911 46.9821 194.854 47.3026C193.797 47.6071 192.884 48.0077 192.1 48.4563C189.057 50.219 187.488 52.0938 187.408 54.0968C187.36 55.3627 188.001 56.6285 189.362 57.8784C190.13 58.5995 191.139 59.3206 192.388 60.0416L218.632 75.2323L218.872 75.3605L219.08 75.4727L219.256 75.5688L207.759 82.2187C204.669 83.9974 202.94 85.7119 202.588 87.3304C202.235 88.9488 203.036 90.3429 205.005 91.4806C205.021 91.4966 205.037 91.4966 205.053 91.5126C207.087 92.6824 209.489 93.1791 212.243 92.9868C214.997 92.7945 217.975 91.785 221.145 89.9423L232.642 83.3084L235.909 85.1992C238.615 86.7535 241.192 87.6188 243.642 87.779C246.092 87.9232 248.51 87.3143 250.896 85.9363C251.04 85.8562 251.168 85.776 251.296 85.6959C253.922 84.0935 254.867 82.6033 254.098 81.2092C253.314 79.7511 251.536 78.2288 248.782 76.6424L246.492 75.3124L246.829 75.1201L294.336 47.6552C295.697 46.87 296.818 46.1008 297.731 45.3637C301.606 42.1589 301.35 39.2907 296.946 36.7429Z" fill="#B99BF9"/>
<path d="M360.498 69.4316L354.077 73.1492L240.408 138.815L126.739 73.1492L120.318 69.4316L187.408 65.1372C187.36 66.4031 188.001 67.669 189.362 68.9188C190.13 69.6399 191.139 70.361 192.388 71.0821L209.697 81.097L207.759 82.2187C204.669 83.9973 202.94 85.7119 202.588 87.3303C202.54 87.5707 202.507 87.8271 202.507 88.0514V99.2201C202.572 100.486 203.388 101.592 205.005 102.521C205.021 102.537 205.037 102.537 205.053 102.553C207.087 103.723 209.489 104.22 212.243 104.027C214.997 103.835 217.975 102.825 221.145 100.983L232.642 94.3488L235.909 96.2396C238.615 97.7939 241.192 98.6592 243.642 98.8195C246.092 98.9637 248.51 98.3548 250.896 96.9767C251.04 96.8966 251.168 96.8165 251.296 96.7364C253.33 95.4865 254.354 94.3167 254.354 93.2111V82.1866C254.354 82.0585 254.338 81.9463 254.322 81.8341L294.336 58.6956C295.697 57.9104 296.818 57.1413 297.731 56.4042C299.588 54.8659 300.485 53.4237 300.453 52.0457L360.498 69.4316Z" fill="#356ED3"/>
<path d="M241.625 62.6541L233.107 67.5737L227.79 64.4969L241.625 62.6541Z" fill="#2B5FCE"/>
<path d="M300.453 52.0457C300.485 53.4237 299.588 54.8659 297.731 56.4042C296.818 57.1413 295.697 57.9104 294.336 58.6956L254.322 81.8341C254.338 81.9463 254.354 82.0585 254.354 82.1866V87.2662L299.236 61.3235C300.597 60.5383 301.67 59.6891 302.631 59.0321C306.569 56.324 303.367 53.9044 300.453 52.0457ZM258.998 94.8776C258.277 93.5476 256.724 92.1535 254.354 90.7114V93.2111C254.354 94.3167 253.33 95.4865 251.296 96.7364C251.168 96.8165 251.04 96.8966 250.896 96.9767C248.51 98.3548 246.092 98.9637 243.642 98.8195C241.977 98.7073 240.264 98.2747 238.486 97.5215L240.808 98.8675C243.514 100.422 246.092 101.287 248.542 101.447C250.992 101.592 253.41 100.983 255.795 99.6046C255.94 99.5245 256.068 99.4444 256.196 99.3643C258.822 97.7619 259.766 96.2717 258.998 94.8776ZM235.909 96.2396L232.642 94.3488L221.145 100.983C217.975 102.825 214.997 103.835 212.243 104.027C210.097 104.171 208.176 103.915 206.462 103.226C207.663 103.899 208.688 104.444 209.905 105.149C209.921 105.165 209.937 105.165 209.953 105.181C211.987 106.351 214.388 106.847 217.142 106.655C219.896 106.463 222.875 105.453 226.045 103.611L237.43 97.0408C236.933 96.8005 236.421 96.5281 235.909 96.2396Z" fill="#2B5FCE"/>
<path d="M92.8252 244.942C94.4905 246.384 95.7875 247.794 96.7162 249.156C97.7249 250.63 98.3014 252.024 98.4775 253.37L98.5255 253.899C98.6856 256.655 96.7002 259.235 92.6011 261.59C88.6301 263.882 84.3069 265.02 79.5993 264.987C74.9078 264.955 69.768 263.898 64.1317 261.783C58.5275 259.652 52.0747 256.495 44.8213 252.313C34.1092 246.127 27.3522 240.888 24.502 236.593C23.6534 235.327 23.205 234.109 23.141 232.94V232.876C23.0449 231.498 23.4933 230.152 24.454 228.87C25.4467 227.54 26.9839 226.258 29.0815 225.056C33.1965 222.668 37.5518 221.499 42.1633 221.483C46.7747 221.467 51.8185 222.476 57.3266 224.511C62.8027 226.562 69.0634 229.607 76.1407 233.693C83.6023 238.003 89.1585 241.753 92.8252 244.942ZM70.8408 213.663C62.1783 210.442 53.788 208.904 45.1735 208.92C37.5678 208.936 26.1192 210.33 14.8468 216.836C7.5453 221.05 3.12599 225.921 1.79699 230.985C1.79699 231.001 1.79699 231.001 1.79699 231.001C0.804247 234.798 1.52479 238.692 4.03867 242.49C7.83352 248.21 15.7915 254.54 28.3929 261.815C36.5911 266.542 43.8285 270.083 50.5375 272.599C59.2641 275.884 67.6544 277.518 76.2528 277.566C87.221 277.646 98.0772 274.89 106.836 269.827C115.851 264.619 120.638 258.193 120.286 251.704C120.206 250.149 119.854 248.627 119.245 247.105C117.932 243.74 115.37 240.407 111.463 237.026C107.124 233.212 100.943 229.014 92.5851 224.191C84.5631 219.56 77.4377 216.115 70.8408 213.663Z" fill="#B99BF9"/>
<path d="M483.454 219.608V237.058C483.454 237.843 483.182 238.644 482.669 239.461C482.173 240.199 481.501 240.968 480.588 241.753L460.637 259.059C460.765 259.347 460.829 259.636 460.829 259.924V277.342C460.845 278.127 460.397 278.944 459.5 279.794C459.42 279.874 459.34 279.954 459.244 280.034C457.643 281.412 455.577 282.021 453.047 281.877C450.501 281.716 447.427 280.851 443.824 279.297L439.469 277.406L431.799 284.04C429.686 285.883 427.3 286.892 424.658 287.084C422.016 287.277 419.326 286.78 416.604 285.61C416.588 285.594 416.572 285.594 416.54 285.578C413.914 284.441 412.313 283.046 411.736 281.428C411.608 281.076 411.544 280.707 411.544 280.338V265.308L385.797 254.139C384.132 253.418 382.707 252.697 381.522 251.976C379.44 250.726 378.063 249.46 377.375 248.194C377.022 247.537 376.846 246.897 376.83 246.272V228.725C376.83 227.46 377.487 226.258 378.816 225.104C379.344 224.655 380.033 224.255 380.913 223.95C381.778 223.63 382.835 223.357 384.1 223.133C385.349 222.909 386.613 222.716 387.878 222.54C389.143 222.38 390.681 222.172 392.538 221.931L459.58 213.006C463.983 212.413 467.41 212.093 469.86 212.028C472.326 211.964 474.663 212.429 476.905 213.39C481.276 215.281 483.454 217.348 483.454 219.608Z" fill="#0C4993"/>
<path d="M430.855 244.221L403.074 232.187L453.095 224.928L430.855 244.221ZM476.905 213.39C474.663 212.429 472.326 211.964 469.86 212.028C467.41 212.093 463.983 212.413 459.58 213.006L392.538 221.931C390.697 222.172 389.143 222.38 387.878 222.54C386.613 222.716 385.349 222.909 384.1 223.133C382.835 223.357 381.778 223.63 380.897 223.95C380.017 224.255 379.328 224.655 378.816 225.104C376.798 226.867 376.302 228.741 377.375 230.744C378.063 232.01 379.424 233.276 381.506 234.526C382.691 235.247 384.116 235.968 385.781 236.689L420.783 251.88L421.103 252.008L421.376 252.12L421.6 252.216L413.946 258.866C411.88 260.645 411.144 262.36 411.72 263.978C412.297 265.596 413.914 266.991 416.54 268.128C416.572 268.144 416.588 268.144 416.604 268.16C419.31 269.33 422 269.827 424.642 269.634C427.284 269.442 429.686 268.433 431.783 266.59L439.453 259.956L443.808 261.847C447.411 263.401 450.485 264.266 453.031 264.427C455.561 264.571 457.627 263.962 459.228 262.584C459.324 262.504 459.404 262.424 459.484 262.344C461.181 260.741 461.277 259.251 459.692 257.857C458.059 256.399 455.417 254.876 451.734 253.29L448.676 251.96L448.9 251.768L480.556 224.303C481.469 223.518 482.141 222.748 482.621 222.011C484.687 218.807 482.782 215.938 476.905 213.39Z" fill="#B99BF9"/>
</svg>
