<svg width="258" height="330" viewBox="0 0 258 330" fill="none" xmlns="http://www.w3.org/2000/svg">
<path d="M249.801 122.16L243.342 125.89L128.992 191.778L14.6421 125.89L8.18286 122.16L128.992 52.5427L249.801 122.16Z" fill="#1A52B5"/>
<path d="M127.864 180.089L1.14366 253.115C-0.370479 253.983 -0.370479 256.17 1.14366 257.038L4.75183 259.128L126.64 329.357C128.106 330.193 129.894 330.193 131.36 329.357L253.248 259.128L256.856 257.038C258.37 256.17 258.37 253.983 256.856 253.115L130.136 180.089C129.427 179.687 128.573 179.687 127.864 180.089ZM191.652 240.88C190.653 241.684 189.429 242.52 187.947 243.372L136.015 273.325L135.645 273.534L138.141 274.981C141.153 276.718 143.086 278.374 143.956 279.965C144.794 281.493 143.763 283.117 140.896 284.853C140.751 284.934 140.622 285.03 140.461 285.11C137.851 286.606 135.21 287.281 132.536 287.12C129.862 286.943 127.043 285.995 124.079 284.306L121.647 282.908C120.938 282.506 120.084 282.506 119.376 282.908L107.939 289.484C104.476 291.493 101.222 292.587 98.2098 292.796C95.1976 293.005 92.572 292.458 90.3491 291.188C90.333 291.172 90.3169 291.172 90.3008 291.156C88.1423 289.918 87.2725 288.39 87.6591 286.638C88.0457 284.869 89.9303 283.004 93.313 281.059L105.877 273.808L105.684 273.695L105.458 273.566L105.201 273.422L76.5125 256.861C75.1433 256.074 74.048 255.286 73.2103 254.498C71.7284 253.131 71.0197 251.749 71.068 250.382C71.1485 248.195 72.8721 246.153 76.1903 244.24C77.044 243.758 78.0427 243.308 79.2025 242.986C80.3622 242.632 81.6831 242.343 83.2133 242.102C84.7114 241.861 86.2255 241.652 87.7074 241.459C89.1894 241.282 91.0095 241.057 93.1841 240.8L172.097 231.072C177.283 230.429 181.23 230.076 183.952 230.011C186.69 229.947 188.962 230.445 190.798 231.49C195.614 234.256 195.888 237.391 191.652 240.88Z" fill="#B0BBCC"/>
<path d="M157.519 244.063L121.018 265.093L98.2419 251.974L157.519 244.063Z" fill="#B0BBCC"/>
<path d="M129.008 184.687L8.19897 115.07L129.008 45.4524L249.817 115.07L129.008 184.687Z" fill="#093F8E"/>
<path d="M249.817 254.385L129.008 324.019L8.19897 254.385L129.008 184.768L249.817 254.385Z" fill="#05346D"/>
<path d="M129.008 184.768L8.19897 254.385V115.15L129.008 184.768Z" fill="#093F8E"/>
<path d="M129.008 192.228L8.19897 122.61L129.008 52.9929L249.817 122.61L129.008 192.228Z" fill="#0C4993"/>
<path d="M128.992 53.0251L8.18286 122.643L14.6421 126.373L128.992 192.26L243.342 126.373L249.801 122.643L128.992 53.0251ZM170.679 144.525C146.55 158.432 110.049 159.943 89.1572 147.901C68.2492 135.859 70.8748 114.829 95.0044 100.921C119.134 87.0139 155.634 85.5025 176.542 97.5449C197.434 109.587 194.809 130.617 170.679 144.525Z" fill="#1A52B5"/>
<path d="M249.817 115.15V254.385L129.008 184.768L249.817 115.15Z" fill="#093F8E"/>
<path d="M128.992 45.5006L8.18286 115.118L14.6421 118.848L128.992 184.736L243.342 118.848L249.801 115.118L128.992 45.5006ZM170.679 137C146.55 150.908 110.049 152.419 89.1572 140.377C68.2492 128.334 70.8748 107.304 95.0044 93.3968C119.134 79.4894 155.634 77.9781 176.542 90.0205C197.434 102.063 194.809 123.093 170.679 137Z" fill="#356ED3"/>
<path d="M249.801 115.199V254.434L224.27 269.145L223.143 269.804L168.231 301.446L164.784 303.439L128.992 324.067V184.816L244.099 118.478L249.801 115.199Z" fill="#1A52B5"/>
<path d="M128.992 184.816V324.067L77.7528 294.532L55.4595 281.686L8.18286 254.434V115.199L15.2703 119.282L128.992 184.816Z" fill="#2B5FCE"/>
<path d="M55.4756 180.925L55.4272 180.957" stroke="black" stroke-width="0.25" stroke-miterlimit="10"/>
<path d="M105.716 247.793L77.7527 294.532L55.4594 281.686L27.5122 202.727C25.2088 198.354 25.2088 193.402 27.5122 191.681L62.4502 165.297C64.7537 163.577 68.4746 165.715 70.7619 170.089L105.716 236.732C108.003 241.121 108.003 246.057 105.716 247.793Z" fill="#093F8E"/>
<path d="M27.4156 202.63L62.3536 269.274C64.641 273.647 68.3619 275.785 70.6653 274.065L105.619 247.697C107.907 245.961 107.907 241.008 105.619 236.635L70.6814 169.992C68.3941 165.619 64.6732 163.481 62.3697 165.201L27.4317 191.569C25.1283 193.305 25.1283 198.257 27.4156 202.63Z" fill="#1A52B5"/>
<path d="M21.6006 206.971L56.5386 273.615C58.8259 277.988 62.5469 280.126 64.8503 278.406L99.8044 252.038C102.092 250.302 102.092 245.35 99.8044 240.976L64.8664 174.333C62.5791 169.96 58.8582 167.822 56.5547 169.542L21.6006 195.91C19.2972 197.646 19.2972 202.598 21.6006 206.971Z" fill="white"/>
<path d="M232.115 246.571L224.27 269.145L223.143 269.804L168.231 301.446L164.784 303.439L154.41 284.097C152.107 280.126 153.476 275.046 157.455 272.746L221.403 232.375C227.621 234.835 234.628 239.304 232.115 246.571Z" fill="#093F8E"/>
<path d="M202.428 177.276C200.463 178.417 194.374 181.086 193.246 184.318L160.563 278.486C159.903 280.383 161.788 286.188 161.916 287.667L158.679 285.705C155.103 283.712 151.752 281.734 154.008 275.206L186.707 181.038C188.962 174.51 193.794 171.906 197.257 173.931L198.546 174.623L202.428 177.276Z" fill="#0C4993"/>
<path d="M231.035 249.642L165.67 287.297C162.448 289.146 160.096 287.233 159.806 283.631C159.678 282.152 159.903 280.383 160.563 278.486L193.246 184.318C194.374 181.086 196.323 178.658 198.288 177.517C200.286 176.311 202.299 176.456 203.443 178.433L236.126 234.947C238.397 238.854 235.562 247.022 231.035 249.642Z" fill="#E6E9ED"/>
<path d="M146.421 1.80072L161.208 48.057C161.288 48.4429 161.288 48.8448 161.143 49.3111L157.261 61.9001L140.767 28.3776C139.527 27.8952 138.995 26.8663 139.398 25.6122L141.862 17.6214L146.34 3.0548C146.485 2.58854 146.501 2.18659 146.421 1.80072Z" fill="#1A52B5"/>
<path d="M94.6661 114.427L62.4504 119.909C60.0181 120.327 58.4395 119.588 58.0529 118.35L43.282 72.1578C43.3142 72.2543 43.3625 72.3668 43.427 72.4633C43.4753 72.5758 43.5558 72.6884 43.6525 72.8009C43.9102 73.1064 44.2807 73.3476 44.7317 73.5084C45.4727 73.7978 46.4713 73.8782 47.6794 73.6852L64.8021 70.7751L79.8952 68.2026L94.6661 114.427Z" fill="#1A52B5"/>
<path d="M43.2659 72.1096C43.3142 72.2382 43.3625 72.3508 43.4269 72.4633C43.3625 72.3669 43.3142 72.2543 43.282 72.1579C43.282 72.1418 43.2659 72.1257 43.2659 72.1096Z" fill="#2B5FCE"/>
<path d="M43.6523 72.801C43.9101 73.0904 44.2806 73.3476 44.7316 73.5084C44.2806 73.3476 43.9101 73.1064 43.6523 72.801Z" fill="#2B5FCE"/>
<path d="M141.911 101.966C140.106 102.626 138.496 103.783 137.61 105.053L121.84 128.061C120.342 130.231 117.185 131.63 114.737 131.662C114.447 131.662 114.157 131.646 113.899 131.614L97.9683 85.0684C98.2421 85.1971 98.5643 85.2935 98.9025 85.3578C100.433 85.6151 102.446 85.181 104.186 84.2645C105.007 83.8304 105.781 83.2677 106.409 82.6246C106.65 82.3673 106.86 82.1101 107.053 81.8368V81.8207L122.839 58.8131C123.161 58.3308 123.596 57.8645 124.095 57.4465C124.611 57.0285 125.191 56.6426 125.819 56.305C126.238 56.096 126.673 55.903 127.124 55.7422L141.911 101.966Z" fill="#1A52B5"/>
<path d="M113.899 131.614C113.061 131.502 112.369 131.212 111.918 130.682L98.6932 115.311C97.9683 114.459 96.4703 114.137 94.6662 114.427L79.8953 68.2027L64.8022 70.7751L47.6795 73.6853C47.4379 73.7174 47.2124 73.7496 46.9869 73.7656C46.8097 73.7817 46.6325 73.7817 46.4714 73.7817C46.8419 73.7817 47.2446 73.7496 47.6795 73.6692L64.8022 70.7591L79.8953 68.1866C80.5557 68.074 81.1517 68.0419 81.7155 68.1062C82.0376 68.1384 82.3437 68.1866 82.6175 68.267C82.8108 68.3313 82.9719 68.3956 83.133 68.476C83.2457 68.5403 83.3424 68.5885 83.439 68.6529C83.5357 68.7172 83.6162 68.7815 83.6968 68.8619C83.7773 68.9101 83.8578 68.9905 83.9223 69.0709V69.087L97.1468 84.4414C97.3724 84.6987 97.6462 84.9077 97.9683 85.0684L113.899 131.614Z" fill="#2B5FCE"/>
<path d="M125.819 56.305C125.191 56.6426 124.611 57.0285 124.095 57.4465C124.611 57.0124 125.191 56.6266 125.819 56.305Z" fill="#2B5FCE"/>
<path d="M174.529 90.342L141.911 101.966L127.124 55.7422C126.673 55.903 126.238 56.096 125.819 56.305C126.238 56.0799 126.673 55.8869 127.124 55.7262L150.174 47.5264H150.19L152.961 46.5296L159.742 44.1179C159.79 44.1018 159.855 44.0857 159.903 44.0536H159.919C160.612 43.7963 161.256 43.4748 161.82 43.1211C162.126 42.9281 162.4 42.7191 162.674 42.5101C164.236 41.2399 165.009 39.6643 164.639 38.4906L179.426 84.7469C179.99 86.4994 177.976 89.1201 174.529 90.342Z" fill="#2B5FCE"/>
<path d="M162.674 42.5101C162.4 42.7191 162.126 42.9281 161.82 43.121C161.256 43.4748 160.612 43.7963 159.919 44.0536H159.903C159.855 44.0857 159.79 44.1018 159.742 44.1179L152.961 46.5457L150.19 47.5264H150.174L127.123 55.7422C126.672 55.903 126.238 56.096 125.819 56.305C125.191 56.6426 124.611 57.0285 124.095 57.4465C123.596 57.8645 123.161 58.3308 122.839 58.8131L107.053 81.8207V81.8368C106.86 82.1101 106.65 82.3673 106.409 82.6246C105.781 83.2677 105.007 83.8304 104.186 84.2645C102.43 85.1971 100.417 85.6312 98.9025 85.3578C98.5642 85.2935 98.242 85.1971 97.9682 85.0684C97.646 84.9077 97.3722 84.6986 97.1467 84.4414L83.9221 69.087C83.8577 69.0066 83.7771 68.9262 83.6966 68.8619C83.6161 68.7815 83.5355 68.7172 83.4389 68.6528C83.3422 68.5885 83.2456 68.5403 83.1328 68.476C82.9717 68.3956 82.8107 68.3313 82.6174 68.267C82.3435 68.1866 82.0375 68.1384 81.7153 68.1062C81.1677 68.058 80.5556 68.0901 79.8951 68.2027L64.8021 70.7751L47.6794 73.6852C46.874 73.8139 46.1652 73.8139 45.5531 73.7174C45.2471 73.6852 44.9732 73.6049 44.7316 73.5084C44.5061 73.428 44.2967 73.3155 44.1195 73.2029C43.9423 73.0904 43.7813 72.9617 43.6524 72.801C43.5558 72.6884 43.4752 72.5759 43.4269 72.4633C43.3625 72.3669 43.3141 72.2543 43.2819 72.1578C43.2819 72.1418 43.2658 72.1257 43.2658 72.1096C42.9437 71.0806 43.4591 69.6818 45.0216 68.3152L69.4894 47.2048C70.8425 46.0312 71.5029 44.6806 71.2935 43.5712L67.1538 23.9722C66.5739 21.2068 71.4707 17.7179 75.4333 18.0234L103.751 20.3386C105.33 20.4672 107.262 19.9527 108.922 18.988L138.576 1.38268C141.927 -0.610987 145.567 -0.337662 146.308 1.5113L146.405 1.80071L146.421 1.81678V1.86502C146.421 1.8811 146.421 1.8811 146.421 1.89717C146.453 2.0258 146.469 2.1705 146.469 2.29912C146.469 2.54029 146.421 2.79754 146.34 3.07086L141.862 17.6375L139.398 25.6282C139.382 25.6604 139.382 25.6925 139.365 25.7247C139.22 26.207 139.22 26.6572 139.365 27.0431C139.382 27.1396 139.43 27.236 139.494 27.3325C139.575 27.5094 139.704 27.6862 139.865 27.8309C140.01 27.9756 140.203 28.1203 140.429 28.2168C140.541 28.2972 140.654 28.3454 140.767 28.3936H140.783L147.355 30.9661L156.907 34.6801H156.923L163.237 37.14C164.011 37.4455 164.462 37.9279 164.639 38.4906C165.009 39.6643 164.236 41.2399 162.674 42.5101Z" fill="#B99BF9"/>
<path d="M95.697 29.9854L97.6783 40.5165" stroke="#EEF0F4" stroke-width="1.5" stroke-miterlimit="10" stroke-linecap="round" stroke-linejoin="round"/>
<path d="M87.8042 38.6353L105.136 32.3167" stroke="#EEF0F4" stroke-width="1.5" stroke-miterlimit="10" stroke-linecap="round" stroke-linejoin="round"/>
<path d="M120.31 35.3394L122.275 45.8704" stroke="#EEF0F4" stroke-width="1.5" stroke-miterlimit="10" stroke-linecap="round" stroke-linejoin="round"/>
<path d="M112.417 43.9893L129.749 37.6707" stroke="#EEF0F4" stroke-width="1.5" stroke-miterlimit="10" stroke-linecap="round" stroke-linejoin="round"/>
<path d="M98.1776 57.4305L87.5303 55.1152C89.8659 52.5428 94.1345 50.9993 97.0823 51.6263C100.014 52.2694 100.529 54.8741 98.1776 57.4305Z" fill="#EEF0F4"/>
<g clip-path="url(#clip0)">
<path d="M203.305 68.9492C204.263 66.9667 205.306 65.0521 206.415 63.1713C206.953 62.2225 207.508 61.2906 208.08 60.3756C208.651 59.4606 209.206 58.5118 209.795 57.6137L210.602 56.3599L212.132 57.1902C213.847 58.139 215.595 59.037 217.293 60.0028C219.008 60.9686 220.689 61.9683 222.371 62.968L218.706 64.4591C219.782 59.2742 221.026 54.1064 222.455 49.0063L223.396 45.6345L226.036 47.6169C227.515 48.7352 228.995 49.8365 230.441 51.0057C231.887 52.1748 233.35 53.2931 234.762 54.53C237.62 56.9191 240.394 59.4098 243.017 62.1039C239.553 60.6298 236.241 58.9354 232.996 57.1393C231.349 56.2752 229.785 55.3094 228.171 54.3775C226.557 53.4625 224.994 52.4798 223.43 51.497L227.011 50.0907C226.002 55.2924 224.809 60.4603 223.464 65.5943L222.572 69L219.798 67.1023C218.184 66.0009 216.57 64.8657 214.99 63.7135C213.393 62.5613 211.846 61.3583 210.282 60.1723L212.619 59.7656C211.896 60.562 211.14 61.3414 210.4 62.1378C209.66 62.9341 208.904 63.7135 208.13 64.476C206.55 66.0009 204.969 67.5089 203.305 68.9492Z" fill="#2B5FCE"/>
<path d="M200.463 64.5438C201.27 60.6806 202.296 56.9021 203.305 53.1236C204.364 49.3621 205.44 45.6006 206.617 41.8729L207.474 44.2789C204.902 43.1098 202.414 41.8051 199.959 40.4496L197 38.84L199.572 36.4509C203.725 32.6046 208.029 28.9109 212.518 25.4374L211.896 27.8265C211.375 25.7424 210.854 23.6583 210.467 21.5234C210.232 20.4729 210.114 19.3715 209.929 18.304C209.795 17.2027 209.66 16.1183 209.61 15C210.282 15.898 210.871 16.813 211.459 17.7449C211.997 18.6768 212.602 19.6087 213.09 20.5576C214.149 22.4553 215.074 24.3869 215.982 26.3354L216.553 27.5384L215.376 28.7245C211.358 32.7402 207.155 36.5356 202.817 40.1785L202.414 36.1798C204.801 37.6708 207.172 39.1958 209.458 40.8393L210.887 41.8729L210.316 43.2454C208.819 46.8544 207.239 50.4126 205.625 53.9878C203.961 57.529 202.33 61.0703 200.463 64.5438Z" fill="#2B5FCE"/>
</g>
<defs>
<clipPath id="clip0">
<rect width="46" height="54" fill="white" transform="translate(197 15)"/>
</clipPath>
</defs>
</svg>
