<svg width="400" height="163" viewBox="0 0 400 163" fill="none" xmlns="http://www.w3.org/2000/svg">
<g clip-path="url(#clip0)">
<path d="M266.04 121.289L263.98 122.479L194.51 162.579C193.67 163.069 192.65 163.069 191.82 162.579L122.35 122.479L120.28 121.289C119.42 120.789 119.42 119.549 120.28 119.049L192.52 77.3489C192.91 77.1189 193.41 77.1189 193.81 77.3489L266.04 119.049C266.9 119.539 266.9 120.789 266.04 121.289Z" fill="#B0BBCC"/>
<path d="M261.68 40.6989L192.82 80.4589L123.96 40.6989L192.82 0.948853L261.68 40.6989Z" fill="#356ED3"/>
<path d="M261.68 40.7489V120.259L192.82 160.009V80.4989L261.68 40.7489Z" fill="#1A52B5"/>
<path d="M123.96 40.7489V120.259L192.82 160.009V80.4989L123.96 40.7489Z" fill="#2B5FCE"/>
<path d="M250.91 79.0689L198.28 109.459V69.3389L250.91 38.9489V79.0689Z" fill="#0C4993"/>
<path d="M266.91 109.529L232.42 129.449V103.549L266.91 83.6289V109.529Z" fill="#0C4993"/>
<path d="M178.33 101.319L119.81 67.5288V43.8988L178.33 77.6788V101.319Z" fill="#1A52B5"/>
<path d="M253.76 80.2089L201.12 110.599V70.4689L253.76 40.0789V80.2089Z" fill="white"/>
<path d="M253.76 40.0789L201.12 110.599" stroke="#EEF0F4" stroke-miterlimit="10"/>
<path d="M201.12 70.4689L253.76 80.2089" stroke="#EEF0F4" stroke-miterlimit="10"/>
<path d="M269.76 110.669L235.26 130.579V104.679L269.76 84.7688V110.669Z" fill="#B99BF9"/>
<path d="M228 131.449L205.29 144.359V118.459L228 105.549V131.449Z" fill="#356ED3"/>
<path d="M165.92 26.3489L189.74 40.0489L163.66 55.1089L139.84 41.4089L165.92 26.3489Z" fill="#0C4993"/>
<path d="M165.92 26.3489L189.74 40.0489L163.66 55.1089L139.84 41.4089L165.92 26.3489Z" fill="#0C4993"/>
<path d="M82.4 89.7789L111.47 106.559V84.3989L82.4 67.6089V89.7789Z" fill="#356ED3"/>
<path d="M82.4 67.6089L111.47 106.559" stroke="#1A52B5" stroke-miterlimit="10"/>
<path d="M111.47 84.3989L82.4 89.7789" stroke="#1A52B5" stroke-miterlimit="10"/>
<path d="M275.78 73.5089L315.88 50.1189C317.16 49.3789 318.19 47.7489 318.19 46.4689C318.19 45.1889 317.15 44.7589 315.88 45.4889L275.78 68.8789C274.5 69.6189 273.47 71.2489 273.47 72.5289C273.47 73.8089 274.51 74.2489 275.78 73.5089Z" fill="#356ED3"/>
<path d="M275.78 64.1089L293.76 53.4789C295.04 52.7389 296.07 51.1089 296.07 49.8289C296.07 48.5489 295.03 48.1189 293.76 48.8489L275.78 59.4789C274.5 60.2189 273.47 61.8489 273.47 63.1289C273.47 64.4089 274.51 64.8489 275.78 64.1089Z" fill="#356ED3"/>
<path d="M165.92 22.9889L189.74 36.6889L163.66 51.7489L139.84 38.0389L165.92 22.9889Z" fill="white"/>
<path d="M139.84 38.0388L189.74 36.6888" stroke="#EEF0F4" stroke-miterlimit="10"/>
<path d="M163.66 51.7489L165.92 22.9889" stroke="#EEF0F4" stroke-miterlimit="10"/>
<path d="M215.84 22.0588L244.93 38.4888L222.5 51.4388L193.41 35.0088L215.84 22.0588Z" fill="#B99BF9"/>
<path d="M175.39 103.619L116.88 69.8389V46.1989L175.39 79.9789V103.619Z" fill="#B99BF9"/>
<path d="M183.85 128.419L132.93 99.0188C131.65 98.2788 130.62 96.6488 130.62 95.3688C130.62 94.0888 131.66 93.6588 132.93 94.3888L183.85 123.789C185.13 124.529 186.16 126.159 186.16 127.439C186.16 128.719 185.13 129.159 183.85 128.419Z" fill="white"/>
<path d="M183.85 137.049L132.93 107.649C131.65 106.909 130.62 105.279 130.62 103.999C130.62 102.719 131.66 102.289 132.93 103.019L183.85 132.419C185.13 133.159 186.16 134.789 186.16 136.069C186.16 137.349 185.13 137.789 183.85 137.049Z" fill="white"/>
<path d="M161.74 132.909L132.93 116.279C131.65 115.539 130.62 113.909 130.62 112.629C130.62 111.349 131.66 110.919 132.93 111.649L161.74 128.279C163.02 129.019 164.05 130.649 164.05 131.929C164.05 133.209 163.02 133.649 161.74 132.909Z" fill="white"/>
<path d="M92.69 56.9488L101.18 61.7688V52.0888L92.69 47.2688V56.9488Z" fill="white"/>
<path d="M309.09 78.6389L300.6 83.4589V73.7789L309.09 68.9589V78.6389Z" fill="white"/>
</g>
<defs>
<clipPath id="clip0">
<rect width="400" height="162" fill="white" transform="translate(0 0.948853)"/>
</clipPath>
</defs>
</svg>
