<?xml version="1.0" encoding="UTF-8"?>
<svg width="541px" height="108px" viewBox="0 0 541 108" version="1.1" xmlns="http://www.w3.org/2000/svg" xmlns:xlink="http://www.w3.org/1999/xlink">
    <!-- Generator: Sketch 59.1 (86144) - https://sketch.com -->
    <title>Isomercms/logo</title>
    <desc>Created with Sketch.</desc>
    <defs>
        <polygon id="path-1" points="0.6525 0.298242424 44.874 0.298242424 44.874 73.0873333 0.6525 73.0873333"></polygon>
        <polygon id="path-3" points="0 0.372242424 44.2305 0.372242424 44.2305 73.0873333 0 73.0873333"></polygon>
        <polygon id="path-5" points="0.612894737 0.657913043 84.7852632 0.657913043 84.7852632 50.3766957 0.612894737 50.3766957"></polygon>
        <polygon id="path-7" points="0.202105263 0.56475 254.706526 0.56475 254.706526 62.127 0.202105263 62.127"></polygon>
    </defs>
    <g id="Isomercms/logo" stroke="none" stroke-width="1" fill="none" fill-rule="evenodd">
        <g id="IsomerCMS">
            <g id="isomer-logo">
                <g id="Group" transform="translate(48.000000, 34.000000)">
                    <g id="Clipped">
                        <mask id="mask-2" fill="white">
                            <use xlink:href="#path-1"></use>
                        </mask>
                        <g id="a"></g>
                        <path d="M40.03425,51.7910303 C40.03425,51.7910303 32.27175,57.2670303 22.76325,62.9650303 C13.25475,68.6630303 5.49,72.4953333 5.49,72.4953333 C3.1995,73.867697 1.34325,72.7711515 1.34325,70.0488485 C1.34325,70.0488485 0.6525,60.399697 0.6525,49.9253333 C0.6525,39.4487273 1.34325,28.9743636 1.34325,28.9743636 C1.34325,26.2498182 3.1995,22.9287879 5.49,21.5564242 C5.49,21.5564242 12.924,16.28 22.76325,10.3846667 C32.60025,4.48484848 40.03425,0.852121212 40.03425,0.852121212 C42.32475,-0.520242424 43.956,0.782606061 44.181,3.29636156 C44.406,5.81460606 44.874,10.0684848 44.874,23.4198788 C44.874,36.7712727 44.181,44.3730909 44.181,44.3730909 C44.181,47.0953939 42.32475,50.4164242 40.03425,51.7887879" id="Path" fill="#2B5FCE" fill-rule="nonzero" mask="url(#mask-2)"></path>
                    </g>
                </g>
                <path d="M87.4237441,67.7024052 L81.238093,62.4153104 C80.4032199,61.7005315 79.3272604,61.9319837 78.8495522,62.9281359 L75.0948553,70.7226298 L75.0993199,70.7362447 L68.0296855,64.6912572 C67.1948123,63.9787474 66.1188528,64.2101997 65.6411446,65.2063519 L54.2096329,88.952896 C53.7296924,89.9490482 54.1024834,90.2962265 55.0355769,89.7244034 L77.2467743,76.1481422 L87.2429293,70.0396189 C88.1760228,69.4677957 88.2586172,68.414915 87.4237441,67.7024052" id="Path" fill="#FFFFFF" fill-rule="nonzero"></path>
                <path d="M76,59.101058 C76,60.0864375 75.3290541,61.2883172 74.5,61.7860654 C73.6709459,62.2817902 73,61.8872337 73,60.8998309 C73,59.9144514 73.6709459,58.7125717 74.5,58.2148235 C75.3290541,57.7170753 76,58.1136552 76,59.101058" id="Path" fill="#B99BF9" fill-rule="nonzero"></path>
                <g id="Group" transform="translate(0.000000, 34.000000)">
                    <g id="Clipped">
                        <mask id="mask-4" fill="white">
                            <use xlink:href="#path-3"></use>
                        </mask>
                        <g id="c"></g>
                        <path d="M0.702,44.3753333 C0.702,44.3753333 0.009,36.7735152 0.009,23.4221212 C-0.08325,11.1044848 0.5175,5.62848485 0.702,3.30084848 C0.8865,0.975454545 2.45025,-0.417090909 4.84875,0.856606061 C4.84875,0.856606061 12.28275,4.48933333 22.11975,10.3846667 C31.959,16.28 39.39075,21.5564242 39.39075,21.5564242 C41.68125,22.9287879 43.53975,26.2498182 43.53975,28.9743636 C43.53975,28.9743636 44.2305,39.4487273 44.2305,49.9253333 C44.2305,60.399697 43.53975,70.0488485 43.53975,70.0488485 C43.53975,72.7711515 41.68125,73.867697 39.39075,72.4930909 C39.39075,72.4930909 31.62825,68.6630303 22.11975,62.9627879 C16.2406688,59.4297717 10.4805162,55.7038132 4.84875,51.7910303 C2.55825,50.4186667 0.702,47.0976364 0.702,44.3775758" id="Path" fill="#2B5FCE" fill-rule="nonzero" mask="url(#mask-4)"></path>
                    </g>
                </g>
                <path d="M18.6640983,52.1858956 L6.94642727,45.1594386 C6.42363887,44.8310787 6,45.0263197 6,45.5942935 L6,77.1878357 C6,77.7580281 6.42363887,78.4857445 6.94642727,78.8118857 L18.6640983,85.8405614 C19.1891401,86.1689213 19.6127789,85.9736803 19.6127789,85.4057065 L19.6127789,53.8121643 C19.6127789,53.2419719 19.1891401,52.5142555 18.6663517,52.1858956 M36.0535727,63.4011593 L23.4458094,55.5005552 C22.923021,55.1721953 22.4993821,55.3674363 22.4993821,55.9354101 L22.4993821,68.7481001 C22.4993821,69.3160739 22.923021,70.0415717 23.4458094,70.3677129 L36.0535727,78.2705357 C36.5763611,78.5988956 37,78.4036546 37,77.8356808 L37,65.0229908 C37,64.455017 36.5763611,63.7295192 36.0535727,63.403378" id="Shape" fill="#FFFFFF" fill-rule="nonzero"></path>
                <path d="M36.0861051,96.8411644 L23.9138949,88.9726486 C23.4090768,88.6455305 23,87.9205661 23,87.3547402 L23,74.5927149 C23,74.026889 23.4090768,73.8323864 23.9138949,74.1572942 L36.0861051,82.0280203 C36.5930992,82.3551383 37,83.0801027 37,83.6459286 L37,96.407954 C37,96.9737798 36.5930992,97.1682824 36.0861051,96.8411644" id="Path" fill="#B99BF9" fill-rule="nonzero"></path>
                <g id="Group" transform="translate(4.000000, 0.000000)">
                    <g id="Clipped">
                        <mask id="mask-6" fill="white">
                            <use xlink:href="#path-5"></use>
                        </mask>
                        <g id="e"></g>
                        <path d="M83.1009211,28.0732174 C83.1009211,28.0732174 75.7528947,33.2732174 65.8705263,39.1198261 C59.7578807,42.7271312 53.5285813,46.128594 47.1928947,49.3186087 C44.8128947,50.7271304 40.9409211,50.7316522 38.5452632,49.3253913 C38.5452632,49.3253913 28.9760526,44.5617391 19.7625,39.1582609 C10.5489474,33.7547826 2.41802632,28.1410435 2.41802632,28.1410435 C0.0223684211,26.7347826 0.0111842105,24.4558261 2.39118421,23.0450435 C2.39118421,23.0450435 9.39697368,18.0485217 19.6215789,11.9984348 C25.7286982,8.38119731 31.9583343,4.97955057 38.2992105,1.79965217 C40.6792105,0.391130435 43.8085526,0.171826087 46.9490789,1.7906087 C50.0873684,3.41165217 53.9884211,5.0733913 65.7296053,11.96 C77.4730263,18.8466087 80.9378947,21.4692174 83.0740789,22.9772174 C85.2125,24.4874783 85.4831579,26.6624348 83.1009211,28.0732174" id="Path" fill="#2B5FCE" fill-rule="nonzero" mask="url(#mask-6)"></path>
                    </g>
                </g>
                <path d="M30.9819751,21.6895102 C29.4749987,20.8400506 29.7311161,19.9994859 31.5536657,19.8282597 L50.4743373,18.0159309 C52.2946001,17.8424811 53.3785255,19.1055519 52.8777245,20.8200372 L50.4880579,29.0633535 C49.9918305,30.7800624 48.3522219,31.4894279 46.8452455,30.642192 L30.9819751,21.6895102 Z" id="Path" fill="#FFFFFF" fill-rule="nonzero"></path>
                <polygon id="Path" fill="#B99BF9" fill-rule="nonzero" points="78 25.2458435 45.199559 44 43 42.7519397 75.800441 24"></polygon>
                <path d="M52.9665087,37.5849202 C54.3386207,38.3640949 54.3452069,39.6297156 52.9818763,40.4110426 C51.6207411,41.1945221 49.403408,41.1966745 48.0334913,40.4153475 C46.6613793,39.6361728 46.6547931,38.3705521 48.0181237,37.5870726 C49.3792589,36.8057456 51.596592,36.8035931 52.9665087,37.5849202" id="Path" fill="#FFFFFF" fill-rule="nonzero"></path>
                <g id="Group" transform="translate(124.000000, 21.000000)">
                    <g id="Clipped">
                        <mask id="mask-8" fill="white">
                            <use xlink:href="#path-7"></use>
                        </mask>
                        <g id="g"></g>
                        <path d="M228.468772,59.74425 L228.468772,21.582 C228.468772,20.565 229.014456,19.98 230.065404,19.98 L238.993965,19.98 C240.008982,19.98 240.592842,20.565 240.592842,21.582 L240.592842,25.17525 C240.592842,26.61975 241.37207,26.9325 242.346667,25.76025 C245.062923,22.57117 248.821962,20.4531291 252.952702,19.78425 C254.082246,19.5885 254.704281,20.214 254.704281,21.26925 L254.704281,30.13425 C254.704281,31.0725 254.160842,31.73625 253.107649,31.73625 C245.310877,32.12775 241.217123,35.33175 241.217123,42.55875 L241.217123,59.74425 C241.217123,60.80175 240.671439,61.34625 239.618246,61.34625 L230.065404,61.34625 C229.014456,61.34625 228.468772,60.7995 228.468772,59.74425 L228.468772,59.74425 Z M207.854035,35.33175 C208.983579,35.33175 209.605614,34.70625 209.217123,33.57225 C207.968561,30.1365 204.849404,28.143 200.79607,28.143 C196.740491,28.143 193.542737,30.096 192.024702,33.49575 C191.555368,34.6275 192.258246,35.33175 193.387789,35.33175 L207.851789,35.33175 L207.854035,35.33175 Z M178.609404,40.68 C178.609404,28.64925 187.654737,19.11825 200.677053,19.11825 C212.529404,19.11825 221.689263,27.20475 221.808281,40.095 L221.76786,41.22675 C221.689263,42.165 221.105404,42.75 220.130807,42.75 L192.882526,42.75 C191.867509,42.75 191.126456,43.3755 191.438596,44.50725 C192.413193,49.43025 196.352,52.164 201.108211,52.164 C204.499088,52.164 207.58007,50.8365 209.567439,48.141 C210.191719,47.322 210.854175,47.00925 211.712,47.439 L218.846316,50.44725 C219.820912,50.8365 220.171228,51.54075 219.744561,52.3215 C216.351439,58.374 209.724632,62.12475 201.105965,62.12475 C187.461614,62.12475 178.611649,52.67475 178.611649,40.68225 L178.609404,40.68 Z M109.729684,59.742 L109.729684,21.582 C109.729684,20.565 110.275368,19.98 111.328561,19.98 L120.879158,19.98 C121.932351,19.98 122.478035,20.565 122.478035,21.582 L122.478035,23.10525 C122.478035,24.54975 123.257263,24.78375 124.270035,23.73075 C126.922105,20.91825 130.391579,19.19925 134.56393,19.19925 C139.436912,19.19925 143.218526,20.799 145.477614,24.31575 C146.063719,25.29225 146.690246,25.371 147.429053,24.47325 C150.274246,21.1905 154.174877,19.19925 158.928842,19.19925 C167.235368,19.19925 172.694456,23.92425 172.694456,32.87025 L172.694456,59.74425 C172.694456,60.80175 172.108351,61.34625 171.093333,61.34625 L161.542737,61.34625 C160.489544,61.34625 159.94386,60.7995 159.94386,59.74425 L159.94386,36.03375 C159.94386,31.932 157.563509,29.47275 153.939088,29.47275 C149.768982,29.47275 147.624421,32.59575 147.624421,36.77625 L147.624421,59.74425 C147.624421,60.80175 147.040561,61.34625 146.025544,61.34625 L136.398596,61.34625 C135.345404,61.34625 134.799719,60.7995 134.799719,59.74425 L134.799719,36.03375 C134.799719,31.932 132.500211,29.47275 128.835368,29.47275 C124.663018,29.47275 122.480281,32.59575 122.480281,36.77625 L122.480281,59.74425 C122.480281,60.80175 121.934596,61.34625 120.881404,61.34625 L111.330807,61.34625 C110.275368,61.34625 109.73193,60.7995 109.73193,59.74425 L109.729684,59.742 Z M90.9069474,40.64175 C90.9069474,34.27425 86.0721404,29.85975 80.1055439,29.85975 C74.1030175,29.85975 69.346807,34.11675 69.346807,40.64175 C69.346807,47.20275 74.1030175,51.38325 80.1077895,51.38325 C86.0721404,51.38325 90.9069474,47.08575 90.9069474,40.64175 L90.9069474,40.64175 Z M57.2609123,40.64175 C57.2609123,28.02375 67.0472982,19.197 80.1459649,19.197 C93.2064561,19.197 103.069193,28.02375 103.069193,40.64175 C103.069193,53.298 93.2064561,62.12475 80.1459649,62.12475 C67.0472982,62.12475 57.2631579,53.298 57.2631579,40.64175 L57.2609123,40.64175 Z M21.0930526,57.71475 C20.2352281,57.20625 20.0780351,56.46375 20.5855439,55.5255 L24.0168421,49.4325 C24.4839298,48.49425 25.3013333,48.339 26.1591579,49.005 C29.6308772,51.1515 34.1131228,52.83 37.3872281,52.83 C40.0011228,52.83 41.7549474,51.777 41.7549474,49.74525 C41.7549474,46.971 38.0496842,46.152 33.6842105,44.62875 C28.3037193,42.79275 21.7555088,40.44825 21.7555088,32.12775 C21.7555088,23.2605 29.1211228,19.19925 37.6230175,19.19925 C42.3006316,19.19925 47.2117895,20.36925 51.4223158,22.71375 C52.3587368,23.22225 52.5159298,23.96475 51.9298246,24.90075 L48.5007719,30.29175 C47.9528421,31.15125 47.2140351,31.30875 46.3562105,30.80025 C43.549193,29.3535 39.9607018,28.1835 37.4658246,28.1835 C35.1663158,28.1835 33.6078596,29.1195 33.6078596,30.80025 C33.6078596,33.3 37.5444211,34.00425 42.1456842,35.487 C47.6811228,37.3635 53.957614,39.942 53.957614,48.6135 C53.957614,57.753 46.9018947,62.127 37.5825965,62.127 C31.7754386,62.127 25.6920702,60.41025 21.0930526,57.71475 L21.0930526,57.71475 Z M0.904982456,59.74425 L0.904982456,21.582 C0.904982456,20.565 1.45066667,19.98 2.50385965,19.98 L11.9781053,19.98 C13.0290526,19.98 13.5747368,20.565 13.5747368,21.582 L13.5747368,59.74425 C13.5747368,60.80175 13.0290526,61.34625 11.9781053,61.34625 L2.50161404,61.34625 C1.45066667,61.34625 0.904982456,60.7995 0.904982456,59.74425 L0.904982456,59.74425 Z M0.202105263,7.596 C0.202105263,3.69 3.39985965,0.56475 7.33642105,0.56475 C11.2232655,0.56475 14.3741754,3.72181409 14.3741754,7.61625 C14.3741754,11.5106859 11.2232655,14.66775 7.33642105,14.66775 C3.39985965,14.66775 0.204350877,11.54025 0.204350877,7.596 L0.202105263,7.596 Z" id="Shape" fill="#0B1528" fill-rule="nonzero" mask="url(#mask-8)"></path>
                    </g>
                </g>
            </g>
            <path d="M428.04,70.724 C428.568003,70.724 429.023998,70.927998 429.408,71.336 L433.224,75.476 C431.111989,78.0920131 428.514015,80.095993 425.43,81.488 C422.345985,82.880007 418.644022,83.576 414.324,83.576 C410.459981,83.576 406.986015,82.9160066 403.902,81.596 C400.817985,80.2759934 398.184011,78.4400118 396,76.088 C393.815989,73.7359882 392.142006,70.9280163 390.978,67.664 C389.813994,64.3999837 389.232,60.8360193 389.232,56.972 C389.232,53.0599804 389.879994,49.4780163 391.176,46.226 C392.472006,42.9739837 394.295988,40.1720118 396.648,37.82 C399.000012,35.4679882 401.813984,33.6380065 405.09,32.33 C408.366016,31.0219935 411.98398,30.368 415.944,30.368 C419.808019,30.368 423.185986,30.9859938 426.078,32.222 C428.970014,33.4580062 431.44799,35.0959898 433.512,37.136 L430.272,41.636 C430.079999,41.9240014 429.834001,42.1759989 429.534,42.392 C429.233998,42.6080011 428.820003,42.716 428.292,42.716 C427.739997,42.716 427.176003,42.5000022 426.6,42.068 C426.023997,41.6359978 425.292004,41.1680025 424.404,40.664 C423.515996,40.1599975 422.394007,39.6920022 421.038,39.26 C419.681993,38.8279978 417.96001,38.612 415.872,38.612 C413.423988,38.612 411.17401,39.0379957 409.122,39.89 C407.06999,40.7420043 405.306007,41.9599921 403.83,43.544 C402.353993,45.1280079 401.202004,47.0539887 400.374,49.322 C399.545996,51.5900113 399.132,54.1399858 399.132,56.972 C399.132,59.9000146 399.545996,62.5039886 400.374,64.784 C401.202004,67.0640114 402.323993,68.9839922 403.74,70.544 C405.156007,72.1040078 406.82399,73.2979959 408.744,74.126 C410.66401,74.9540041 412.727989,75.368 414.936,75.368 C416.256007,75.368 417.449995,75.2960007 418.518,75.152 C419.586005,75.0079993 420.569996,74.7800016 421.47,74.468 C422.370004,74.1559984 423.221996,73.7540025 424.026,73.262 C424.830004,72.7699975 425.627996,72.1640036 426.42,71.444 C426.660001,71.2279989 426.911999,71.0540007 427.176,70.922 C427.440001,70.7899993 427.727998,70.724 428.04,70.724 Z M466.668,61.4 C467.076002,62.1680038 467.453998,62.9659959 467.802,63.794 C468.150002,64.6220041 468.491998,65.4559958 468.828,66.296 C469.164002,65.4319957 469.511998,64.5800042 469.872,63.74 C470.232002,62.8999958 470.615998,62.0960038 471.024,61.328 L486.432,32.492 C486.624001,32.1319982 486.821999,31.8440011 487.026,31.628 C487.230001,31.4119989 487.457999,31.2560005 487.71,31.16 C487.962001,31.0639995 488.243998,31.0040001 488.556,30.98 L488.9592,30.9569599 C489.1752,30.94832 489.412799,30.944 489.672,30.944 L496.98,30.944 L496.98,83 L488.448,83 L488.448,49.376 C488.448,48.7519969 488.466,48.0680037 488.502,47.324 C488.538,46.5799963 488.592,45.8240038 488.664,45.056 L472.932,74.576 C472.571998,75.2480034 472.104003,75.7699981 471.528,76.142 C470.951997,76.5140019 470.280004,76.7 469.512,76.7 L468.18,76.7 C467.411996,76.7 466.740003,76.5140019 466.164,76.142 C465.587997,75.7699981 465.120002,75.2480034 464.76,74.576 L448.812,44.948 C448.908,45.740004 448.974,46.5139962 449.01,47.27 C449.046,48.0260038 449.064,48.7279968 449.064,49.376 L449.064,83 L440.532,83 L440.532,30.944 L447.84,30.944 L448.3296,30.94976 C448.56,30.9555199 448.768799,30.9655999 448.956,30.98 C449.268002,31.0040001 449.549999,31.0639995 449.802,31.16 C450.054001,31.2560005 450.287999,31.4119989 450.504,31.628 C450.720001,31.8440011 450.923999,32.1319982 451.116,32.492 L466.668,61.4 Z M535.392,40.412 C535.127999,40.9400026 534.822002,41.3119989 534.474,41.528 C534.125998,41.7440011 533.712002,41.852 533.232,41.852 C532.751998,41.852 532.212003,41.6660019 531.612,41.294 C531.011997,40.9219981 530.304004,40.5080023 529.488,40.052 C528.671996,39.5959977 527.718005,39.1820019 526.626,38.81 C525.533995,38.4379981 524.244007,38.252 522.756,38.252 C521.411993,38.252 520.242005,38.4139984 519.246,38.738 C518.249995,39.0620016 517.410003,39.5119971 516.726,40.088 C516.041997,40.6640029 515.532,41.353996 515.196,42.158 C514.859998,42.962004 514.692,43.8439952 514.692,44.804 C514.692,46.0280061 515.033997,47.0479959 515.718,47.864 C516.402003,48.6800041 517.307994,49.3759971 518.436,49.952 C519.564006,50.5280029 520.847993,51.0439977 522.288,51.5 C523.728007,51.9560023 525.197993,52.4419974 526.698,52.958 C528.198008,53.4740026 529.667993,54.0739966 531.108,54.758 C532.548007,55.4420034 533.831994,56.3059948 534.96,57.35 C536.088006,58.3940052 536.993997,59.6719924 537.678,61.184 C538.362003,62.6960076 538.704,64.5319892 538.704,66.692 C538.704,69.0440118 538.302004,71.2459897 537.498,73.298 C536.693996,75.3500103 535.518008,77.1379924 533.97,78.662 C532.421992,80.1860076 530.532011,81.3859956 528.3,82.262 C526.067989,83.1380044 523.512014,83.576 520.632,83.576 C518.975992,83.576 517.344008,83.4140016 515.736,83.09 C514.127992,82.7659984 512.586007,82.304003 511.11,81.704 C509.633993,81.103997 508.254006,80.3840042 506.97,79.544 C505.685994,78.7039958 504.540005,77.7680052 503.532,76.736 L506.34,72.092 C506.604001,71.7559983 506.921998,71.4740011 507.294,71.246 C507.666002,71.0179989 508.079998,70.904 508.536,70.904 C509.136003,70.904 509.783997,71.1499975 510.48,71.642 C511.176003,72.1340025 511.997995,72.679997 512.946,73.28 C513.894005,73.880003 515.009994,74.4259975 516.294,74.918 C517.578006,75.4100025 519.119991,75.656 520.92,75.656 C523.680014,75.656 525.815992,75.0020065 527.328,73.694 C528.840008,72.3859935 529.596,70.5080122 529.596,68.06 C529.596,66.6919932 529.254003,65.5760043 528.57,64.712 C527.885997,63.8479957 526.980006,63.1220029 525.852,62.534 C524.723994,61.9459971 523.440007,61.448002 522,61.04 C520.559993,60.631998 519.096007,60.1880024 517.608,59.708 C516.119993,59.2279976 514.656007,58.6520034 513.216,57.98 C511.775993,57.3079966 510.492006,56.4320054 509.364,55.352 C508.235994,54.2719946 507.330003,52.9220081 506.646,51.302 C505.961997,49.6819919 505.62,47.6840119 505.62,45.308 C505.62,43.4119905 505.997996,41.564009 506.754,39.764 C507.510004,37.963991 508.613993,36.368 510.066,34.976 C511.518007,33.583993 513.299989,32.4680042 515.412,31.628 C517.524011,30.7879958 519.935986,30.368 522.648,30.368 C525.720015,30.368 528.551987,30.8479952 531.144,31.808 C533.736013,32.7680048 535.943991,34.1119914 537.768,35.84 L535.392,40.412 Z" id="CMS" fill="#2B5FCE" fill-rule="nonzero"></path>
        </g>
    </g>
</svg>